PathFileType	4	(X/Y/Z)	E:\Qualisys_Data\Carbon_Farble_Plate\Data\Amateur_Runner\S14\T2\S14T2V24_c3d.trc
DataRate	CameraRate	NumFrames	NumMarkers	Units	OrigDataRate	OrigDataStartFrame	OrigNumFrames
200.000000	200.000000	4	39	mm	200.000000	39	315
Frame#	Time	LSHO			RSHO			LICST			RICST			LASIS			LHEEL			RASIS			LTROC			RTROC			SACR			LTH1			LSK4			LTH2			LTH3			RHM5			LSK2			LTH4			RTH1			LTOE			RTH2			RTH3			RTH4			LLEP			RLEP			LSK1			LSK3			RSK1			LHM5			RSK2			LFT1			RSK3			RSK4			LLME			RLME			RTOE			RHEEL			RFT1			RFT2			LFT2			
		X1	Y1	Z1	X2	Y2	Z2	X3	Y3	Z3	X4	Y4	Z4	X5	Y5	Z5	X6	Y6	Z6	X7	Y7	Z7	X8	Y8	Z8	X9	Y9	Z9	X10	Y10	Z10	X11	Y11	Z11	X12	Y12	Z12	X13	Y13	Z13	X14	Y14	Z14	X15	Y15	Z15	X16	Y16	Z16	X17	Y17	Z17	X18	Y18	Z18	X19	Y19	Z19	X20	Y20	Z20	X21	Y21	Z21	X22	Y22	Z22	X23	Y23	Z23	X24	Y24	Z24	X25	Y25	Z25	X26	Y26	Z26	X27	Y27	Z27	X28	Y28	Z28	X29	Y29	Z29	X30	Y30	Z30	X31	Y31	Z31	X32	Y32	Z32	X33	Y33	Z33	X34	Y34	Z34	X35	Y35	Z35	X36	Y36	Z36	X37	Y37	Z37	X38	Y38	Z38	X39	Y39	Z39	

40	0.195	-2398.902587890625	1397.159301757812	-470.9122009277344	-2434.734375	1371.709228515625	-166.6302185058594	-2480.8330078125	946.1829833984376	-488.7698974609375	-2486.76904296875	954.8052978515624	-206.1782073974609	-2443.271728515625	894.8226318359375	-461.3760070800781	-2867.25146484375	573.4164428710938	-370.1209106445312	-2457.54248046875	917.9735717773438	-226.3174133300781	-2572.189697265625	827.452880859375	-515.6683959960938	-2592.79443359375	837.7276000976562	-185.3103637695312	-2620.25244140625	956.8494873046876	-367.1579284667969	-2487.07666015625	606.7650146484375	-521.848876953125	-2696.721923828125	520.6737060546875	-471.3991088867188	-2563.85302734375	599.3046264648438	-504.4994506835938	-2471.455322265625	507.8624572753906	-509.1138610839844	-2408.257080078125	80.69392395019531	-222.5474395751953	-2604.590576171875	505.3838806152344	-502.7339477539062	-2551.11181640625	503.9155578613281	-491.0782470703125	-2390.391357421875	662.541748046875	-176.958251953125	-2966.00634765625	338.0007934570312	-411.2556457519531	-2462.619873046875	637.7512817382812	-177.1432189941406	-2352.920166015625	574.343505859375	-209.7891693115234	-2430.599853515625	544.0200805664062	-200.5010986328125	-2525.659912109375	458.6824035644531	-508.4383850097656	-2381.188720703125	488.8344116210938	-211.323974609375	-2613.06298828125	424.0975341796875	-492.1427001953125	-2710.584228515625	441.3498840332031	-466.9031372070312	-2380.81103515625	360.5206298828125	-218.8675689697266	-2965.194091796875	413.5465087890625	-465.426025390625	-2464.13916015625	381.3762512207031	-212.4903411865234	-2896.107177734375	571.5639038085938	-344.6433410644531	-2413.612548828125	265.6628112792969	-242.27978515625	-2487.531982421875	291.0404968261719	-233.5378875732422	-2863.604248046875	518.3817749023438	-437.5044860839844	-2517.1552734375	127.364501953125	-268.322998046875	-2322.787109375	79.07538604736328	-276.40185546875	-2575.062744140625	107.1390380859375	-332.1594848632812	-2563.206298828125	68.7899398803711	-350.3052673339844	-2583.442138671875	84.8224105834961	-299.9578552246094	-2898.530517578125	585.1104736328125	-399.4718017578125
41	0.2	-2379.244873046875	1394.945678710938	-471.1884155273438	-2410.956787109375	1369.142822265625	-166.2155151367188	-2461.595703125	943.8992919921876	-487.9405212402344	-2465.81982421875	952.267333984375	-205.0218353271484	-2425.112060546875	892.4415893554688	-462.7842712402344	-2833.82373046875	570.7152709960938	-371.0067749023438	-2436.12451171875	915.8389892578124	-225.1126403808594	-2551.36572265625	824.8243408203125	-514.6228637695312	-2573.107177734375	836.1116333007812	-184.8495788574219	-2600.43212890625	955.2193603515624	-366.7536926269531	-2457.087646484375	606.50244140625	-521.8421630859375	-2661.642333984375	519.4813232421875	-471.4258422851562	-2533.473388671875	596.4540405273438	-504.5255737304688	-2438.0517578125	508.4396667480469	-508.5462036132812	-2408.015380859375	80.37792205810547	-222.9317626953125	-2569.7294921875	504.40966796875	-502.92333984375	-2517.7578125	502.6574096679688	-490.5099792480469	-2373.852294921875	658.027099609375	-176.8099822998047	-2926.702392578125	333.2102661132812	-412.8173217773438	-2447.067626953125	634.9158325195312	-177.5985717773438	-2338.406494140625	569.1669311523438	-209.3431396484375	-2416.30908203125	540.3233032226562	-201.1441955566406	-2490.957763671875	458.0306396484375	-507.6994323730469	-2371.37353515625	483.447021484375	-211.5536193847656	-2577.654052734375	423.3550109863281	-492.4842529296875	-2675.527099609375	440.0675354003906	-467.0440368652344	-2373.021728515625	355.7892456054688	-218.4712371826172	-2926.754150390625	408.9458923339844	-467.681396484375	-2455.166015625	379.3618774414062	-212.1934661865234	-2864.0107421875	568.8570556640625	-346.4006652832031	-2408.7119140625	261.8082275390625	-241.9269256591797	-2481.86279296875	289.1585083007812	-233.4635162353516	-2827.82421875	515.8253784179688	-437.4996032714844	-2516.846435546875	127.4814071655273	-268.6083679199219	-2323.214599609375	77.97789001464844	-276.5330810546875	-2575.090087890625	107.3334503173828	-332.0564880371094	-2563.299072265625	69.32328796386719	-350.5426940917969	-2583.27001953125	84.91807556152344	-299.8316345214844	-2864.73828125	581.6277465820312	-400.2947692871094
42	0.205	-2359.156005859375	1392.936889648438	-471.3628845214844	-2387.276123046875	1367.416015625	-165.7420196533203	-2443.591064453125	942.3513793945312	-488.3924255371094	-2445.003173828125	949.9622802734376	-205.2776641845703	-2406.91943359375	890.2033081054688	-462.4579467773438	-2801.217529296875	568.0250854492188	-372.1961669921875	-2414.84814453125	914.0979614257812	-223.7334899902344	-2530.87646484375	823.4988403320312	-512.960205078125	-2553.118408203125	835.67333984375	-184.5129547119141	-2580.246826171875	953.9119873046876	-366.0089416503906	-2430.718994140625	607.9383544921875	-524.3490600585938	-2626.0234375	517.6257934570312	-470.3460693359375	-2502.818359375	594.0924682617188	-503.9877014160156	-2405.3095703125	510.3543090820312	-508.796142578125	-2408.34228515625	79.51659393310547	-222.6265563964844	-2533.460693359375	503.9795227050781	-501.0909118652344	-2483.850830078125	502.16796875	-490.1731567382812	-2358.302490234375	651.6890258789062	-173.7419281005859	-2889.408447265625	328.2860717773438	-413.318603515625	-2433.9970703125	631.4093627929688	-178.0962371826172	-2326.036865234375	562.0836791992188	-208.6729888916016	-2404.802734375	536.3411865234375	-201.0223388671875	-2455.940673828125	458.3049621582031	-507.0501403808594	-2360.40185546875	477.5430297851562	-211.0491638183594	-2541.4658203125	422.3837585449219	-491.7226867675781	-2639.559814453125	438.3858337402344	-466.8388061523438	-2364.96044921875	350.7462768554688	-218.4289398193359	-2888.7109375	403.8824768066406	-469.9315490722656	-2446.403564453125	377.1996459960938	-212.0003051757812	-2830.68505859375	564.1260375976562	-347.0283813476562	-2404.72607421875	258.4311218261719	-242.9377288818359	-2476.625732421875	288.261474609375	-233.6260833740234	-2792.738037109375	512.31884765625	-438.5164184570312	-2517.123291015625	127.9851150512695	-268.4617919921875	-2323.2236328125	77.23149871826172	-276.6920471191406	-2575.0107421875	107.8980484008789	-331.5974426269531	-2563.651611328125	70.38809204101562	-350.2316589355469	-2582.928466796875	85.30757904052734	-299.203857421875	-2831.600830078125	577.8997802734375	-401.6420288085938
43	0.21	-2339.8642578125	1391.370849609375	-472.3574829101562	-2363.127197265625	1366.109741210938	-165.772705078125	-2424.95654296875	941.2769775390624	-487.4249572753906	-2425.336181640625	947.47607421875	-204.8136444091797	-2380.279052734375	890.192138671875	-459.9049987792969	-2768.725341796875	564.54345703125	-372.3809814453125	-2394.58837890625	912.1448364257812	-223.253173828125	-2510.38427734375	822.0797119140625	-511.7588195800781	-2532.96923828125	835.665283203125	-183.7218933105469	-2559.3779296875	953.4202880859376	-364.6421203613281	-2399.6494140625	609.5090942382812	-523.570556640625	-2591.12646484375	516.7705688476562	-470.0657958984375	-2473.163330078125	593.185302734375	-504.1969604492188	-2371.878173828125	512.6398315429688	-508.9252014160156	-2408.014892578125	79.2630615234375	-222.4685974121094	-2499.0732421875	504.8397216796875	-501.0804443359375	-2450.6376953125	503.0191345214844	-489.8304443359375	-2343.50732421875	645.8707275390625	-172.665283203125	-2848.9951171875	322.3477783203125	-415.352783203125	-2418.892333984375	628.0697631835938	-177.3031005859375	-2312.318359375	555.7488403320312	-208.0244598388672	-2393.1298828125	532.2481689453125	-201.6415405273438	-2421.667724609375	460.2653503417969	-506.5907287597656	-2350.763916015625	471.7516479492188	-210.9661102294922	-2505.69873046875	422.8552856445312	-491.6645202636719	-2603.609619140625	437.4696960449219	-466.5933532714844	-2358.22998046875	346.1101989746094	-218.8421783447266	-2850.517822265625	398.7798156738281	-472.2504272460938	-2437.1748046875	376.3295593261719	-211.0070495605469	-2800.1708984375	560.4951782226562	-348.6989135742188	-2400.166748046875	254.9312591552734	-242.74853515625	-2470.40185546875	286.5725708007812	-234.2442932128906	-2758.48876953125	509.7653198242188	-439.7223510742188	-2516.6611328125	128.5340423583984	-268.315185546875	-2322.99462890625	77.08494567871094	-276.1927795410156	-2574.74267578125	108.4555587768555	-331.1690368652344	-2563.52197265625	70.85857391357422	-350.1222534179688	-2583.359130859375	86.14187622070312	-299.1415710449219	-2798.761962890625	573.5928955078125	-402.3361511230469
